<?xml version="1.0" encoding="UTF-8" standalone="no"?>
<svg
   xmlns:dc="http://purl.org/dc/elements/1.1/"
   xmlns:cc="http://creativecommons.org/ns#"
   xmlns:rdf="http://www.w3.org/1999/02/22-rdf-syntax-ns#"
   xmlns:svg="http://www.w3.org/2000/svg"
   xmlns="http://www.w3.org/2000/svg"
   xmlns:sodipodi="http://sodipodi.sourceforge.net/DTD/sodipodi-0.dtd"
   xmlns:inkscape="http://www.inkscape.org/namespaces/inkscape"
   version="1.1"
   x="0px"
   y="0px"
   viewBox="0 0 44.5 44.5"
   enable-background="new 0 0 90 90"
   xml:space="preserve"
   id="svg12"
   sodipodi:docname="eye.svg"
   width="44.5"
   height="44.5"
   inkscape:version="0.92.3 (2405546, 2018-03-11)"><metadata
     id="metadata18"><rdf:RDF><cc:Work
         rdf:about=""><dc:format>image/svg+xml</dc:format><dc:type
           rdf:resource="http://purl.org/dc/dcmitype/StillImage" /><dc:title></dc:title></cc:Work></rdf:RDF></metadata><defs
     id="defs16" /><sodipodi:namedview
     pagecolor="#ffffff"
     bordercolor="#666666"
     borderopacity="1"
     objecttolerance="10"
     gridtolerance="10"
     guidetolerance="10"
     inkscape:pageopacity="0"
     inkscape:pageshadow="2"
     inkscape:window-width="1596"
     inkscape:window-height="1276"
     id="namedview14"
     showgrid="false"
     inkscape:zoom="8.3911111"
     inkscape:cx="-7.6407747"
     inkscape:cy="53.718327"
     inkscape:window-x="2740"
     inkscape:window-y="119"
     inkscape:window-maximized="0"
     inkscape:current-layer="svg12" /><g
     id="g6"
     transform="matrix(0.71534937,0,0,0.71534937,-9.6747545,-9.7976518)"
     style="fill:#ffffff"><path
       d="m 45.2,38.3 c -5.4,0 -9.8,4.4 -9.8,9.8 0,5.4 4.4,9.8 9.8,9.8 5.4,0 9.8,-4.4 9.8,-9.8 0,-5.4 -4.3,-9.8 -9.8,-9.8 z m 2.1,4.2 c -4,0 -7.3,3.3 -7.3,7.3 0,0.8 0.1,1.5 0.3,2.2 -1.3,-1.2 -2,-2.8 -2,-4.6 0,-3.5 2.8,-6.3 6.3,-6.3 1.7,0 3.2,0.7 4.3,1.7 -0.5,-0.2 -1,-0.3 -1.6,-0.3 z"
       id="path2"
       inkscape:connector-curvature="0"
       style="fill:#ffffff" /><path
       d="m 72.8,45.4 2.8,-4 C 75.9,41 75.8,40.3 75.4,40 l -0.8,-0.6 c -0.4,-0.3 -1.1,-0.2 -1.4,0.2 l -2.8,3.9 C 68.6,42.2 66.6,41 64.5,40 l 2.3,-4.7 c 0.2,-0.5 0,-1.1 -0.5,-1.3 l -0.9,-0.4 c -0.5,-0.2 -1.1,0 -1.3,0.5 l -2.3,4.8 C 59.9,38.1 57.9,37.5 55.9,37 l 1.3,-5.3 C 57.3,31.2 57,30.6 56.5,30.5 l -1,-0.2 C 55,30.2 54.4,30.5 54.3,31 L 53,36.4 C 50.9,36 48.8,35.8 46.6,35.7 v -5.6 c 0,-0.5 -0.4,-1 -1,-1 h -1 c -0.5,0 -1,0.4 -1,1 v 5.6 c -2.4,0.1 -4.8,0.3 -7.2,0.8 L 35,31 c -0.1,-0.5 -0.7,-0.9 -1.2,-0.7 l -1,0.2 c -0.5,0.1 -0.9,0.7 -0.7,1.2 l 1.3,5.5 c -2,0.5 -3.9,1.2 -5.8,2 L 25.1,34.1 C 24.9,33.6 24.3,33.4 23.8,33.6 L 22.9,34 c -0.5,0.2 -0.7,0.8 -0.5,1.3 l 2.4,5 c -2,1 -4,2.2 -5.8,3.5 L 16,39.5 C 15.7,39.1 15.1,38.9 14.6,39.3 L 13.9,40 c -0.4,0.3 -0.6,0.9 -0.2,1.4 l 3.1,4.5 c -0.5,0.4 -0.9,0.8 -1.4,1.2 l -1.1,1.1 1.1,1.1 C 23,56.4 33.8,60.5 45,60.5 56.2,60.5 67,56.4 74.6,49.2 L 75.7,48.1 74.6,47 C 74,46.5 73.4,45.9 72.8,45.4 Z M 45,57.5 c -9.9,0 -19.4,-3.4 -26.3,-9.4 6.9,-6 16.4,-9.4 26.3,-9.4 9.9,0 19.4,3.4 26.3,9.4 -6.9,6 -16.4,9.4 -26.3,9.4 z"
       id="path4"
       inkscape:connector-curvature="0"
       style="fill:#ffffff" /></g></svg>