{
    "asset" : {
        "generator" : "Khronos glTF Blender I/O v1.5.17",
        "version" : "2.0"
    },
    "scene" : 0,
    "scenes" : [
        {
            "name" : "Scene",
            "nodes" : [
                0
            ]
        }
    ],
    "nodes" : [
        {
            "mesh" : 0,
            "name" : "node-0",
            "rotation" : [
                -0.02418837696313858,
                -0.7009124755859375,
                -0.7125674486160278,
                0.019605323672294617
            ],
            "scale" : [
                0.025476939976215363,
                0.025476939976215363,
                0.025476939976215363
            ],
            "translation" : [
                0.0030225813388824463,
                0,
                4.424926280975342
            ]
        }
    ],
    "materials" : [
        {
            "doubleSided" : true,
            "name" : "blinn5SG",
            "pbrMetallicRoughness" : {
                "baseColorFactor" : [
                    0.009999999776482582,
                    0.009999999776482582,
                    0.009999999776482582,
                    1
                ],
                "metallicFactor" : 0,
                "roughnessFactor" : 0.9699476361274719
            }
        }
    ],
    "meshes" : [
        {
            "name" : "buffer-0-mesh-0",
            "primitives" : [
                {
                    "attributes" : {
                        "POSITION" : 0,
                        "NORMAL" : 1,
                        "TEXCOORD_0" : 2
                    },
                    "indices" : 3,
                    "material" : 0
                }
            ]
        }
    ],
    "accessors" : [
        {
            "bufferView" : 0,
            "componentType" : 5126,
            "count" : 1548,
            "max" : [
                189.79541015625,
                180.2412872314453,
                425.2148132324219
            ],
            "min" : [
                -88.173583984375,
                -253.08714294433594,
                -3.099999958067201e-05
            ],
            "type" : "VEC3"
        },
        {
            "bufferView" : 1,
            "componentType" : 5126,
            "count" : 1548,
            "type" : "VEC3"
        },
        {
            "bufferView" : 2,
            "componentType" : 5126,
            "count" : 1548,
            "type" : "VEC2"
        },
        {
            "bufferView" : 3,
            "componentType" : 5123,
            "count" : 1548,
            "type" : "SCALAR"
        }
    ],
    "bufferViews" : [
        {
            "buffer" : 0,
            "byteLength" : 18576,
            "byteOffset" : 0
        },
        {
            "buffer" : 0,
            "byteLength" : 18576,
            "byteOffset" : 18576
        },
        {
            "buffer" : 0,
            "byteLength" : 12384,
            "byteOffset" : 37152
        },
        {
            "buffer" : 0,
            "byteLength" : 3096,
            "byteOffset" : 49536
        }
    ],
    "buffers" : [
        {
            "byteLength" : 52632,
            "uri" : "data:application/octet-stream;base64,"
        }
    ]
}
