{
    "asset" : {
        "generator" : "Khronos glTF Blender I/O v1.1.46",
        "version" : "2.0"
    },
    "scene" : 0,
    "scenes" : [
        {
            "name" : "Scene",
            "nodes" : [
                3
            ]
        }
    ],
    "nodes" : [
        {
            "mesh" : 0,
            "name" : "node-0"
        },
        {
            "children" : [
                0
            ],
            "name" : "Node.002",
            "translation" : [
                0.019619204103946686,
                -0.019619204103946686,
                3.904221773147583
            ]
        },
        {
            "children" : [
                1
            ],
            "name" : "Node.001",
            "translation" : [
                -0.019619204103946686,
                0.019619204103946686,
                -3.904221773147583
            ]
        },
        {
            "children" : [
                2
            ],
            "name" : "Node",
            "rotation" : [
                0.7071068286895752,
                0,
                0,
                0.7071067094802856
            ]
        }
    ],
    "materials" : [
        {
            "doubleSided" : true,
            "emissiveFactor" : [
                0,
                0,
                0
            ],
            "name" : "lambert3SG.001",
            "pbrMetallicRoughness" : {
                "baseColorFactor" : [
                    0.9646865129470825,
                    0.5332764983177185,
                    0.45078596472740173,
                    1
                ],
                "metallicFactor" : 0,
                "roughnessFactor" : 0.9699476361274719
            }
        },
        {
            "doubleSided" : true,
            "emissiveFactor" : [
                0,
                0,
                0
            ],
            "name" : "lambert4SG",
            "pbrMetallicRoughness" : {
                "baseColorFactor" : [
                    0.014443844556808472,
                    0.012983030639588833,
                    0.07818742841482162,
                    1
                ],
                "metallicFactor" : 0,
                "roughnessFactor" : 0.9699476361274719
            }
        },
        {
            "doubleSided" : true,
            "emissiveFactor" : [
                0,
                0,
                0
            ],
            "name" : "lambert2SG",
            "pbrMetallicRoughness" : {
                "baseColorFactor" : [
                    0.014443844556808472,
                    0.012983030639588833,
                    0.07818742841482162,
                    1
                ],
                "metallicFactor" : 0,
                "roughnessFactor" : 0.9699476361274719
            }
        }
    ],
    "meshes" : [
        {
            "name" : "buffer-0-mesh-0.001",
            "primitives" : [
                {
                    "attributes" : {
                        "POSITION" : 0,
                        "NORMAL" : 1,
                        "TEXCOORD_0" : 2
                    },
                    "indices" : 3,
                    "material" : 0
                },
                {
                    "attributes" : {
                        "POSITION" : 4,
                        "NORMAL" : 5,
                        "TEXCOORD_0" : 6
                    },
                    "indices" : 7,
                    "material" : 1
                },
                {
                    "attributes" : {
                        "POSITION" : 8,
                        "NORMAL" : 9,
                        "TEXCOORD_0" : 10
                    },
                    "indices" : 11,
                    "material" : 2
                }
            ]
        }
    ],
    "accessors" : [
        {
            "bufferView" : 0,
            "componentType" : 5126,
            "count" : 384,
            "max" : [
                1.7801129817962646,
                2.6705639362335205,
                -0.9752050042152405
            ],
            "min" : [
                -1.7801120281219482,
                2.5540130138397217,
                -7.239640235900879
            ],
            "type" : "VEC3"
        },
        {
            "bufferView" : 1,
            "componentType" : 5126,
            "count" : 384,
            "type" : "VEC3"
        },
        {
            "bufferView" : 2,
            "componentType" : 5126,
            "count" : 384,
            "type" : "VEC2"
        },
        {
            "bufferView" : 3,
            "componentType" : 5123,
            "count" : 384,
            "type" : "SCALAR"
        },
        {
            "bufferView" : 4,
            "componentType" : 5126,
            "count" : 816,
            "max" : [
                1.6318670511245728,
                2.6268439292907715,
                -1.0601940155029297
            ],
            "min" : [
                -1.6318670511245728,
                2.0722360610961914,
                -7.091393947601318
            ],
            "type" : "VEC3"
        },
        {
            "bufferView" : 5,
            "componentType" : 5126,
            "count" : 816,
            "type" : "VEC3"
        },
        {
            "bufferView" : 6,
            "componentType" : 5126,
            "count" : 816,
            "type" : "VEC2"
        },
        {
            "bufferView" : 7,
            "componentType" : 5123,
            "count" : 816,
            "type" : "SCALAR"
        },
        {
            "bufferView" : 8,
            "componentType" : 5126,
            "count" : 480,
            "max" : [
                2.711970090866089,
                2.711970090866089,
                0
            ],
            "min" : [
                -2.711970090866089,
                -2.711970090866089,
                -7.847681999206543
            ],
            "type" : "VEC3"
        },
        {
            "bufferView" : 9,
            "componentType" : 5126,
            "count" : 480,
            "type" : "VEC3"
        },
        {
            "bufferView" : 10,
            "componentType" : 5126,
            "count" : 480,
            "type" : "VEC2"
        },
        {
            "bufferView" : 11,
            "componentType" : 5123,
            "count" : 480,
            "type" : "SCALAR"
        }
    ],
    "bufferViews" : [
        {
            "buffer" : 0,
            "byteLength" : 4608,
            "byteOffset" : 0
        },
        {
            "buffer" : 0,
            "byteLength" : 4608,
            "byteOffset" : 4608
        },
        {
            "buffer" : 0,
            "byteLength" : 3072,
            "byteOffset" : 9216
        },
        {
            "buffer" : 0,
            "byteLength" : 768,
            "byteOffset" : 12288
        },
        {
            "buffer" : 0,
            "byteLength" : 9792,
            "byteOffset" : 13056
        },
        {
            "buffer" : 0,
            "byteLength" : 9792,
            "byteOffset" : 22848
        },
        {
            "buffer" : 0,
            "byteLength" : 6528,
            "byteOffset" : 32640
        },
        {
            "buffer" : 0,
            "byteLength" : 1632,
            "byteOffset" : 39168
        },
        {
            "buffer" : 0,
            "byteLength" : 5760,
            "byteOffset" : 40800
        },
        {
            "buffer" : 0,
            "byteLength" : 5760,
            "byteOffset" : 46560
        },
        {
            "buffer" : 0,
            "byteLength" : 3840,
            "byteOffset" : 52320
        },
        {
            "buffer" : 0,
            "byteLength" : 960,
            "byteOffset" : 56160
        }
    ],
    "buffers" : [
        {
            "byteLength" : 57120,
            "uri" : "hifiStereo.bin"
        }
    ]
}
