{
    "asset" : {
        "generator" : "Khronos glTF Blender I/O v1.1.46",
        "version" : "2.0"
    },
    "scene" : 0,
    "scenes" : [
        {
            "name" : "Scene",
            "nodes" : [
                3
            ]
        }
    ],
    "nodes" : [
        {
            "mesh" : 0,
            "name" : "node-0"
        },
        {
            "children" : [
                0
            ],
            "name" : "Node.002",
            "translation" : [
                -0.6690909266471863,
                256.16363525390625,
                -8.92357063293457
            ]
        },
        {
            "children" : [
                1
            ],
            "name" : "Node.001",
            "translation" : [
                0.6690909266471863,
                -256.16363525390625,
                8.92357063293457
            ]
        },
        {
            "children" : [
                2
            ],
            "name" : "Node",
            "rotation" : [
                0.7071068286895752,
                0,
                0,
                0.7071067094802856
            ]
        }
    ],
    "materials" : [
        {
            "doubleSided" : true,
            "emissiveFactor" : [
                0,
                0,
                0
            ],
            "name" : "lambert3SG",
            "pbrMetallicRoughness" : {
                "baseColorTexture" : {
                    "index" : 0,
                    "texCoord" : 0
                },
                "metallicFactor" : 0,
                "roughnessFactor" : 0.9699476361274719
            }
        }
    ],
    "meshes" : [
        {
            "name" : "buffer-0-mesh-0",
            "primitives" : [
                {
                    "attributes" : {
                        "POSITION" : 0,
                        "NORMAL" : 1,
                        "TEXCOORD_0" : 2
                    },
                    "indices" : 3,
                    "material" : 0
                }
            ]
        }
    ],
    "textures" : [
        {
            "source" : 0
        }
    ],
    "images" : [
        {
            "mimeType" : "image/png",
            "name" : "Commodore 64 Texture",
            "uri" : "Commodore%2064%20Texture.png"
        }
    ],
    "accessors" : [
        {
            "bufferView" : 0,
            "componentType" : 5126,
            "count" : 684,
            "max" : [
                107.50001525878906,
                -149.75,
                121.8375015258789
            ],
            "min" : [
                -105,
                -360,
                -110.52919006347656
            ],
            "type" : "VEC3"
        },
        {
            "bufferView" : 1,
            "componentType" : 5126,
            "count" : 684,
            "type" : "VEC3"
        },
        {
            "bufferView" : 2,
            "componentType" : 5126,
            "count" : 684,
            "type" : "VEC2"
        },
        {
            "bufferView" : 3,
            "componentType" : 5123,
            "count" : 684,
            "type" : "SCALAR"
        }
    ],
    "bufferViews" : [
        {
            "buffer" : 0,
            "byteLength" : 8208,
            "byteOffset" : 0
        },
        {
            "buffer" : 0,
            "byteLength" : 8208,
            "byteOffset" : 8208
        },
        {
            "buffer" : 0,
            "byteLength" : 5472,
            "byteOffset" : 16416
        },
        {
            "buffer" : 0,
            "byteLength" : 1368,
            "byteOffset" : 21888
        }
    ],
    "buffers" : [
        {
            "byteLength" : 23256,
            "uri" : "monitor.bin"
        }
    ]
}
