<?xml version="1.0" encoding="UTF-8" standalone="no"?>
<svg
   xmlns:dc="http://purl.org/dc/elements/1.1/"
   xmlns:cc="http://creativecommons.org/ns#"
   xmlns:rdf="http://www.w3.org/1999/02/22-rdf-syntax-ns#"
   xmlns:svg="http://www.w3.org/2000/svg"
   xmlns="http://www.w3.org/2000/svg"
   xmlns:sodipodi="http://sodipodi.sourceforge.net/DTD/sodipodi-0.dtd"
   xmlns:inkscape="http://www.inkscape.org/namespaces/inkscape"
   version="1.1"
   overflow="visible"
   viewBox="0 0 99.5 128"
   x="0px"
   y="0px"
   id="svg14"
   sodipodi:docname="pointerX3.svg"
   width="99.5"
   height="128"
   style="overflow:visible;fill-rule:evenodd;stroke-width:0.50099999;stroke-linejoin:bevel"
   inkscape:version="0.92.5 (2060ec1f9f, 2020-04-08)">
  <metadata
     id="metadata20">
    <rdf:RDF>
      <cc:Work
         rdf:about="">
        <dc:format>image/svg+xml</dc:format>
        <dc:type
           rdf:resource="http://purl.org/dc/dcmitype/StillImage" />
        <dc:title />
      </cc:Work>
    </rdf:RDF>
  </metadata>
  <defs
     id="defs18" />
  <sodipodi:namedview
     pagecolor="#ffffff"
     bordercolor="#666666"
     borderopacity="1"
     objecttolerance="10"
     gridtolerance="10"
     guidetolerance="10"
     inkscape:pageopacity="0"
     inkscape:pageshadow="2"
     inkscape:window-width="1354"
     inkscape:window-height="1090"
     id="namedview16"
     showgrid="false"
     inkscape:zoom="2.5173334"
     inkscape:cx="30.710926"
     inkscape:cy="-12.807822"
     inkscape:window-x="3174"
     inkscape:window-y="237"
     inkscape:window-maximized="0"
     inkscape:current-layer="svg14" />
  <g
     font-size="16"
     transform="matrix(2.8514271,0,0,-2.8304606,-57.206971,-42.066666)"
     id="g8"
     style="font-size:16px;font-family:'Times New Roman';fill:none;stroke:#000000">
    <g
       transform="translate(0,-75)"
       id="g6">
      <g
         id="g4">
        <path
           d="m 30.323,14.917 v 0.691 h -0.007 v 5.463 h 2.049 v -4.105 h 16.429 v 4.105 h 2.049 v -6.154 z m -2.061,6.151 v 4.111 h 2.049 v -4.111 z m 22.585,0.007 v 6.157 h 2.049 v -6.157 z m -24.636,4.109 v 4.102 h 2.049 v -4.102 z m 26.69,2.053 V 41.604 H 54.95 V 27.237 Z M 24.158,29.29 v 4.103 h 2.049 V 29.29 Z m 4.104,2.054 v 6.159 h -2.051 v 2.047 h 2.051 v 18.482 h 2.049 V 31.344 Z m -6.159,2.052 v 2.048 h 2.048 v -2.048 z m -2.052,2.048 v 6.16 h 6.156 V 39.556 H 22.1 v -4.112 z m 26.69,2.06 v 8.209 h 4.101 V 43.664 H 48.79 v -6.16 z m -12.317,2.051 v 18.479 h 2.049 v -8.216 h 4.104 v -2.049 h -4.104 v -8.214 z m 6.16,0.002 v 8.209 h 6.154 v -2.049 h -4.105 v -6.16 z m 10.264,2.053 v 2.048 h 2.048 V 41.61 Z M 30.315,58.036 v 2.047 h 4.105 v -2.047 z"
           stroke-miterlimit="79.8403193612775"
           id="path2"
           inkscape:connector-curvature="0"
           style="fill:#000000;stroke:none;stroke-width:0.061;stroke-linejoin:miter;stroke-miterlimit:79.84031677;marker-start:none;marker-end:none" />
      </g>
    </g>
  </g>
</svg>
