{
    "asset" : {
        "generator" : "Khronos glTF Blender I/O v1.5.17",
        "version" : "2.0"
    },
    "scene" : 0,
    "scenes" : [
        {
            "name" : "Scene",
            "nodes" : [
                0
            ]
        }
    ],
    "nodes" : [
        {
            "mesh" : 0,
            "name" : "node_MeshObject1457854720-PolyPaper9",
            "rotation" : [
                0,
                -0.7225798964500427,
                0,
                0.6912874579429626
            ],
            "translation" : [
                0.017642730847001076,
                0.29602840542793274,
                1.5077500343322754
            ]
        }
    ],
    "materials" : [
        {
            "name" : "BlocksPaper",
            "pbrMetallicRoughness" : {
                "metallicFactor" : 0,
                "roughnessFactor" : 0.6000000238418579
            }
        }
    ],
    "meshes" : [
        {
            "name" : "mesh_m0-PolyPaper9_-865468",
            "primitives" : [
                {
                    "attributes" : {
                        "POSITION" : 0,
                        "NORMAL" : 1,
                        "COLOR_0" : 2
                    },
                    "indices" : 3,
                    "material" : 0
                }
            ]
        }
    ],
    "accessors" : [
        {
            "bufferView" : 0,
            "componentType" : 5126,
            "count" : 966,
            "max" : [
                1.6654866933822632,
                0.10170729458332062,
                1.6347301006317139
            ],
            "min" : [
                -1.7747372388839722,
                -0.1519962102174759,
                -1.5759893655776978
            ],
            "type" : "VEC3"
        },
        {
            "bufferView" : 1,
            "componentType" : 5126,
            "count" : 966,
            "type" : "VEC3"
        },
        {
            "bufferView" : 2,
            "componentType" : 5123,
            "count" : 966,
            "normalized" : true,
            "type" : "VEC4"
        },
        {
            "bufferView" : 3,
            "componentType" : 5123,
            "count" : 996,
            "type" : "SCALAR"
        }
    ],
    "bufferViews" : [
        {
            "buffer" : 0,
            "byteLength" : 11592,
            "byteOffset" : 0
        },
        {
            "buffer" : 0,
            "byteLength" : 11592,
            "byteOffset" : 11592
        },
        {
            "buffer" : 0,
            "byteLength" : 7728,
            "byteOffset" : 23184
        },
        {
            "buffer" : 0,
            "byteLength" : 1992,
            "byteOffset" : 30912
        }
    ],
    "buffers" : [
        {
            "byteLength" : 32904,
            "uri" : "data:application/octet-stream;base64,"
        }
    ]
}
